<?xml version="1.0" encoding="UTF-8"?>
<svg width="250px" height="245px" viewBox="0 0 250 245" version="1.1" xmlns="http://www.w3.org/2000/svg" xmlns:xlink="http://www.w3.org/1999/xlink">
    <!-- Generator: Sketch 49.3 (51167) - http://www.bohemiancoding.com/sketch -->
    <title>Shape</title>
    <desc>Created with Sketch.</desc>
    <defs></defs>
    <g id="Page-1" stroke="none" stroke-width="1" fill="none" fill-rule="evenodd">
        <g id="github" transform="translate(-75.000000, -75.000000)" fill="#000000" fill-rule="nonzero">
            <path d="M308.23209,137.344089 C297.054243,118.164981 281.892207,102.980855 262.741993,91.7882846 C243.588928,80.5951434 222.679491,75 199.99886,75 C177.321079,75 156.404801,80.596856 137.255727,91.7882846 C118.103802,102.980284 102.942337,118.164981 91.7644899,137.344089 C80.5883533,156.522627 75,177.465738 75,200.172851 C75,227.449247 82.9467148,251.97688 98.8441349,273.762032 C114.739845,295.548895 135.274749,310.624556 160.447137,318.990725 C163.377274,319.53534 165.546374,319.152283 166.956716,317.851259 C168.367628,316.548523 169.07223,314.916963 169.07223,312.96343 C169.07223,312.63746 169.044296,309.704877 168.99014,304.162254 C168.934274,298.619631 168.908051,293.784322 168.908051,289.65861 L165.16443,290.307124 C162.777565,290.744984 159.766478,290.930519 156.13117,290.877998 C152.497572,290.82719 148.725447,290.445846 144.819928,289.73682 C140.912698,289.034073 137.27853,287.404225 133.914572,284.850703 C130.552325,282.29718 128.16546,278.954708 126.754548,274.828426 L125.127011,271.077779 C124.042176,268.580772 122.334259,265.806892 120.000981,262.766413 C117.667702,259.72308 115.3082,257.659939 112.921336,256.573564 L111.781774,255.756642 C111.022447,255.21374 110.317846,254.558947 109.666261,253.799113 C109.015246,253.039278 108.52784,252.278873 108.202332,251.517326 C107.876255,250.755208 108.146466,250.130101 109.015816,249.639719 C109.885166,249.149338 111.456267,248.911283 113.735959,248.911283 L116.989894,249.398239 C119.160134,249.833817 121.844573,251.13484 125.046631,253.309302 C128.24698,255.482051 130.877833,258.30674 132.93976,261.782225 C135.436647,266.238473 138.444884,269.634036 141.97302,271.970627 C145.498306,274.307217 149.052665,275.473514 152.632677,275.473514 C156.212689,275.473514 159.304725,275.201778 161.909925,274.661159 C164.512275,274.117687 166.953866,273.300765 169.233558,272.214961 C170.210081,264.931741 172.868867,259.336598 177.207636,255.425535 C171.023564,254.774738 165.463714,253.794546 160.525236,252.491239 C155.589607,251.186219 150.48923,249.068274 145.227525,246.131694 C139.962969,243.19911 135.595696,239.5575 132.124566,235.213143 C128.652867,230.866503 125.803679,225.160039 123.580993,218.098889 C121.357167,211.034885 120.244969,202.886219 120.244969,193.650607 C120.244969,180.500508 124.531862,169.310221 133.103939,160.073467 C129.088397,150.187059 129.46749,139.104096 134.24236,126.825722 C137.389122,125.846672 142.055679,126.581388 148.239751,129.025303 C154.424963,131.470359 158.953565,133.564899 161.830116,135.3015 C164.706667,137.03753 167.011442,138.508674 168.747862,139.701802 C178.840874,136.877685 189.256543,135.465341 199.99772,135.465341 C210.738896,135.465341 221.156846,136.877685 231.250428,139.701802 L237.43507,135.791881 C241.664386,133.182983 246.658731,130.79216 252.406133,128.61884 C258.156955,126.446661 262.554441,125.848385 265.594031,126.827435 C270.474933,139.10638 270.909893,150.188771 266.893211,160.07518 C275.464717,169.311934 279.753321,180.505075 279.753321,193.65232 C279.753321,202.887932 278.637133,211.062287 276.416727,218.180524 C274.193471,225.299903 271.31977,231.000659 267.794485,235.294779 C264.265208,239.588328 259.870002,243.201394 254.608297,246.133406 C249.345451,249.067703 244.243363,251.185648 239.307735,252.490668 C234.369827,253.795687 228.809977,254.77645 222.625905,255.428389 C228.266134,260.316219 231.086819,268.031591 231.086819,278.571081 L231.086819,312.958863 C231.086819,314.912396 231.765197,316.543385 233.123093,317.846692 C234.479279,319.147716 236.621016,319.530773 239.551153,318.985587 C264.726961,310.62056 285.261865,295.544328 301.157005,273.757465 C317.050435,251.972313 325,227.44468 325,200.168284 C324.994299,177.464025 319.403096,156.522627 308.23209,137.344089 Z" id="Shape"></path>
        </g>
    </g>
</svg>